<svg xmlns="http://www.w3.org/2000/svg" xmlns:xlink="http://www.w3.org/1999/xlink"><symbol id="spectrum-css-icon-Asterisk100" viewBox="0 0 8 8"><path d="M6.575 6.555c.055.056.092.13 0 .2l-1.149.741c-.092.056-.129.019-.166-.074L3.834 4.94 1.963 7c-.019.036-.074.073-.129 0l-.889-.927c-.093-.055-.074-.111 0-.166l2.111-1.76L.648 3.24c-.037 0-.092-.074-.056-.167l.63-1.259a.097.097 0 01.167-.036L3.5 3.148l.13-2.7a.1.1 0 01.081-.111.15.15 0 01.03 0l1.537.2c.093 0 .111.037.093.13l-.723 2.647 2.445-.741c.055-.037.111-.037.148.074l.241 1.37c.018.093 0 .13-.074.13l-2.556.2z"/></symbol><symbol id="spectrum-css-icon-Checkmark100" viewBox="0 0 10 10"><path d="M3.5 9.5a.999.999 0 01-.774-.368l-2.45-3a1 1 0 111.548-1.264l1.657 2.028 4.68-6.01A1 1 0 019.74 2.114l-5.45 7a1 1 0 01-.777.386z"/></symbol><symbol id="spectrum-css-icon-Chevron100" viewBox="0 0 10 10"><path d="M3 9.95a.875.875 0 01-.615-1.498L5.88 5 2.385 1.547A.875.875 0 013.615.302L7.74 4.377a.876.876 0 010 1.246L3.615 9.698A.872.872 0 013 9.95z"/></symbol><symbol id="spectrum-icon-18-Alert" viewBox="0 0 36 36"><path d="M17.127 2.579L.4 32.512A1 1 0 001.272 34h33.456a1 1 0 00.872-1.488L18.873 2.579a1 1 0 00-1.746 0zM20 29.5a.5.5 0 01-.5.5h-3a.5.5 0 01-.5-.5v-3a.5.5 0 01.5-.5h3a.5.5 0 01.5.5zm0-6a.5.5 0 01-.5.5h-3a.5.5 0 01-.5-.5v-12a.5.5 0 01.5-.5h3a.5.5 0 01.5.5z"/></symbol><symbol id="spectrum-icon-18-Calendar" viewBox="0 0 36 36"><path d="M33 6h-5V3a1 1 0 00-1-1h-2a1 1 0 00-1 1v3H10V3a1 1 0 00-1-1H7a1 1 0 00-1 1v3H1a1 1 0 00-1 1v26a1 1 0 001 1h32a1 1 0 001-1V7a1 1 0 00-1-1zm-1 26H2V8h4v1a1 1 0 001 1h2a1 1 0 001-1V8h14v1a1 1 0 001 1h2a1 1 0 001-1V8h4z"/><path d="M6 12h4v4H6zm6 0h4v4h-4zm6 0h4v4h-4zm6 0h4v4h-4zM6 18h4v4H6zm6 0h4v4h-4zm6 0h4v4h-4zm6 0h4v4h-4zM6 24h4v4H6zm6 0h4v4h-4zm6 0h4v4h-4zm6 0h4v4h-4z"/></symbol><symbol id="spectrum-icon-18-LinkOut" viewBox="0 0 36 36"><path d="M33 18h-2a1 1 0 00-1 1v11H6V6h11a1 1 0 001-1V3a1 1 0 00-1-1H3a1 1 0 00-1 1v30a1 1 0 001 1h30a1 1 0 001-1V19a1 1 0 00-1-1z"/><path d="M33.5 2H22.754a.8.8 0 00-.754.8.784.784 0 00.235.56l3.786 3.79-7.042 7.042a1 1 0 000 1.415l1.414 1.414a1 1 0 001.414 0l7.043-7.042 3.786 3.785A.781.781 0 0033.2 14a.8.8 0 00.8-.754V2.5a.5.5 0 00-.5-.5z"/></symbol><symbol id="spectrum-icon-18-Attach" viewBox="0 0 36 36"><path d="M16.207 31.557a6.64 6.64 0 01-4.728 1.97h-.106a6.976 6.976 0 01-4.827-2.075 6.764 6.764 0 01-.1-9.661l17.779-17.8a4.874 4.874 0 013.133-1.479 3.72 3.72 0 013.042 1.12A3.537 3.537 0 0131.517 6.7a5.74 5.74 0 01-1.584 3L18.072 21.541c-.764.765-1.483 1.315-2.3.5s-.176-1.569.526-2.271c.267-.267 8.248-8.238 9.673-9.659a.732.732 0 00.014-1.021l-.675-.718a.735.735 0 00-1.056-.015L14.3 18.344a3.632 3.632 0 00-.072 5.469c2.661 2.66 5.683-.591 5.683-.591L31.7 11.466c2.508-2.5 3.47-6.6.472-9.6A6.227 6.227 0 0027.589 0a7.275 7.275 0 00-5.132 2.227L4.76 19.9A9.433 9.433 0 0018.1 33.24l15.405-15.4a.735.735 0 000-1.038l-.75-.751a.735.735 0 00-1.039 0z"/></symbol></svg>