<svg xmlns="http://www.w3.org/2000/svg" xmlns:xlink="http://www.w3.org/1999/xlink"><symbol id="icon-AlertMedium"><path d="M8.564 1.289L.2 16.256A.5.5 0 0 0 .636 17h16.728a.5.5 0 0 0 .436-.744L9.436 1.289a.5.5 0 0 0-.872 0zM10 14.75a.25.25 0 0 1-.25.25h-1.5a.25.25 0 0 1-.25-.25v-1.5a.25.25 0 0 1 .25-.25h1.5a.25.25 0 0 1 .25.25zm0-3a.25.25 0 0 1-.25.25h-1.5a.25.25 0 0 1-.25-.25v-6a.25.25 0 0 1 .25-.25h1.5a.25.25 0 0 1 .25.25z"/></symbol><symbol id="icon-Asterisk"><path d="M6.573 6.558c.056.055.092.13 0 .204l-1.148.74c-.093.056-.13.02-.167-.073L3.832 4.947l-1.87 2.055c-.02.037-.075.074-.13 0l-.889-.926c-.092-.055-.074-.111 0-.167l2.111-1.76-2.408-.906c-.037 0-.092-.074-.055-.167l.63-1.259a.097.097 0 0 1 .166-.036l2.111 1.37.13-2.704a.097.097 0 0 1 .111-.11L5.277.54c.092 0 .11.037.092.13l-.722 2.647 2.444-.74c.056-.038.111-.038.148.073l.241 1.37c.019.093 0 .13-.074.13l-2.556.204z"/></symbol><symbol id="icon-CheckmarkSmall"><path d="M3.788 9A.999.999 0 0 1 3 8.615l-2.288-3a1 1 0 1 1 1.576-1.23l1.5 1.991 3.924-4.991a1 1 0 1 1 1.576 1.23l-4.712 6A.999.999 0 0 1 3.788 9z"/></symbol><symbol id="icon-ChevronDownMedium"><path d="M9.99 1.01A1 1 0 0 0 8.283.303L5 3.586 1.717.303A1 1 0 1 0 .303 1.717l3.99 3.98a1 1 0 0 0 1.414 0l3.99-3.98a.997.997 0 0 0 .293-.707z"/></symbol><symbol id="icon-Attach" viewBox="0 0 36 36">
    <path d="M16.207 31.557a6.64 6.64 0 0 1-4.728 1.97h-.106a6.976 6.976 0 0 1-4.827-2.075 6.764 6.764 0 0 1-.1-9.661l17.779-17.8a4.874 4.874 0 0 1 3.133-1.479 3.72 3.72 0 0 1 3.042 1.12A3.537 3.537 0 0 1 31.517 6.7a5.74 5.74 0 0 1-1.584 3L18.072 21.541c-.764.765-1.483 1.315-2.3.5s-.176-1.569.526-2.271c.267-.267 8.248-8.238 9.673-9.659a.732.732 0 0 0 .014-1.021l-.675-.718a.735.735 0 0 0-1.056-.015L14.3 18.344a3.632 3.632 0 0 0-.072 5.469c2.661 2.66 5.683-.591 5.683-.591L31.7 11.466c2.508-2.5 3.47-6.6.472-9.6A6.227 6.227 0 0 0 27.589 0a7.275 7.275 0 0 0-5.132 2.227L4.76 19.9A9.433 9.433 0 0 0 18.1 33.24l15.405-15.4a.735.735 0 0 0 0-1.038l-.75-.751a.735.735 0 0 0-1.039 0z"/>
</symbol><symbol id="icon-Datepicker" viewBox="0 0 36 36">
    <path d="M33 6h-5V3a1 1 0 0 0-1-1h-2a1 1 0 0 0-1 1v3H10V3a1 1 0 0 0-1-1H7a1 1 0 0 0-1 1v3H1a1 1 0 0 0-1 1v26a1 1 0 0 0 1 1h32a1 1 0 0 0 1-1V7a1 1 0 0 0-1-1zm-1 26H2V8h4v1a1 1 0 0 0 1 1h2a1 1 0 0 0 1-1V8h14v1a1 1 0 0 0 1 1h2a1 1 0 0 0 1-1V8h4z">
    </path>
    <path d="M6 12h4v4H6zm6 0h4v4h-4zm6 0h4v4h-4zm6 0h4v4h-4zM6 18h4v4H6zm6 0h4v4h-4zm6 0h4v4h-4zm6 0h4v4h-4zM6 24h4v4H6zm6 0h4v4h-4zm6 0h4v4h-4zm6 0h4v4h-4z">
    </path>
</symbol><symbol id="icon-LinkOut" viewBox="0 0 36 36">
    <path d="M33 18h-2a1 1 0 0 0-1 1v11H6V6h11a1 1 0 0 0 1-1V3a1 1 0 0 0-1-1H3a1 1 0 0 0-1 1v30a1 1 0 0 0 1 1h30a1 1 0 0 0 1-1V19a1 1 0 0 0-1-1z"/>
    <path d="M33.5 2H22.754a.8.8 0 0 0-.754.8.784.784 0 0 0 .235.56l3.786 3.79-7.042 7.042a1 1 0 0 0 0 1.415l1.414 1.414a1 1 0 0 0 1.414 0l7.043-7.042 3.786 3.785A.781.781 0 0 0 33.2 14a.8.8 0 0 0 .8-.754V2.5a.5.5 0 0 0-.5-.5z"/>
</symbol></svg>